<?xml version="1.0" encoding="UTF-8"?>
<!DOCTYPE svg PUBLIC "-//W3C//DTD SVG 1.1//EN" "http://www.w3.org/Graphics/SVG/1.1/DTD/svg11.dtd">
<!-- Creator: CorelDRAW 2020 (64 Bit) -->
<svg xmlns="http://www.w3.org/2000/svg" xml:space="preserve" width="100px" height="100px" version="1.1" style="shape-rendering:geometricPrecision; text-rendering:geometricPrecision; image-rendering:optimizeQuality; fill-rule:evenodd; clip-rule:evenodd"
viewBox="0 0 100 100"
 xmlns:xlink="http://www.w3.org/1999/xlink"
 xmlns:xodm="http://www.corel.com/coreldraw/odm/2003">
 <defs>
  <style type="text/css">
   <![CDATA[
    .fil0 {fill:#2B2A29}
   ]]>
  </style>
 </defs>
 <g id="Camada_x0020_1">
  <metadata id="CorelCorpID_0Corel-Layer"/>
  <g id="_1016309744">
   <path class="fil0" d="M47.6 56.54l1.9 0 0.47 -1.64c0.15,-0.54 0.32,-1.09 0.47,-1.64 0.29,-1.03 2.8,-9.65 2.8,-9.88l-1.8 0c-0.13,0 -0.24,0.54 -0.29,0.74l-3.31 11.59c-0.08,0.27 -0.18,0.56 -0.24,0.83z"/>
   <path class="fil0" d="M41.02 49.96c0.07,0.1 0.14,0.18 0.22,0.28l0.71 0.89c0.63,0.8 1.73,2.22 2.35,2.93l0.46 0.61 1.9 0c-0.02,-0.11 -0.13,-0.21 -0.2,-0.3l-3.5 -4.38c0.04,-0.16 0.81,-1.07 0.92,-1.21l2.62 -3.26c0.3,-0.38 0.29,-0.27 -1.57,-0.27 -0.2,0 -0.35,0.27 -0.55,0.52l-3.1 3.88c-0.07,0.08 -0.19,0.26 -0.26,0.31z"/>
   <path class="fil0" d="M57.92 49.96c-0.24,0.36 -2.46,3.1 -2.8,3.51 -0.16,0.2 -0.32,0.4 -0.47,0.6 -0.16,0.19 -0.33,0.39 -0.47,0.6 0.18,0 1.79,0.02 1.89,-0.02 0.03,-0.01 3.66,-4.52 3.75,-4.69l-3.56 -4.45c-0.06,-0.08 -0.17,-0.26 -0.28,-0.26l-1.7 0c-0.18,0 -0.04,0.12 0.07,0.26l3.57 4.45z"/>
  </g>
 </g>
</svg>
